<svg xmlns="http://www.w3.org/2000/svg" viewBox="0 0 140 180">
  <defs>
    <linearGradient id="bg" x1="0" y1="0" x2="1" y2="1"><stop offset="0%" stop-color="#1a1800"/><stop offset="100%" stop-color="#2a2810"/></linearGradient>
    <radialGradient id="glow" cx="50%" cy="50%"><stop offset="0%" stop-color="#fff176" stop-opacity="0.4"/><stop offset="100%" stop-color="transparent"/></radialGradient>
  </defs>
  <rect width="140" height="180" fill="url(#bg)"/>
  <rect width="140" height="180" fill="url(#glow)"/>
  <ellipse cx="70" cy="40" rx="35" ry="10" fill="none" stroke="#fff176" stroke-width="2" opacity="0.5"/>
  <path d="M70 75 L5 40 L25 60 L10 55 L30 70 L15 68 L40 80Z" fill="#f5f5dc" opacity="0.4"/>
  <path d="M70 75 L135 40 L115 60 L130 55 L110 70 L125 68 L100 80Z" fill="#f5f5dc" opacity="0.4"/>
  <ellipse cx="70" cy="100" rx="22" ry="35" fill="#2a2400" opacity="0.8"/>
  <circle cx="70" cy="55" r="20" fill="#3a3200"/>
  <path d="M50 42 L55 28 L60 38 L65 25 L70 35 L75 25 L80 38 L85 28 L90 42Z" fill="#ffd700" opacity="0.7"/>
  <circle cx="62" cy="52" r="4" fill="#fff176"/>
  <circle cx="78" cy="52" r="4" fill="#fff176"/>
  <circle cx="62" cy="52" r="2" fill="#fff"/>
  <circle cx="78" cy="52" r="2" fill="#fff"/>
  <line x1="70" y1="10" x2="70" y2="25" stroke="#fff176" stroke-width="1" opacity="0.4"/>
  <circle cx="30" cy="70" r="2" fill="#fff176" opacity="0.5"/>
  <circle cx="110" cy="65" r="2" fill="#fff176" opacity="0.5"/>
  <text x="70" y="170" text-anchor="middle" fill="#fff176" font-size="12" font-weight="bold" font-family="sans-serif">光帝</text>
</svg>
