<svg xmlns="http://www.w3.org/2000/svg" viewBox="0 0 140 180">
  <defs>
    <linearGradient id="bg" x1="0" y1="0" x2="1" y2="1"><stop offset="0%" stop-color="#1a0500"/><stop offset="100%" stop-color="#4a1000"/></linearGradient>
    <radialGradient id="glow" cx="50%" cy="60%"><stop offset="0%" stop-color="#ff6b35" stop-opacity="0.4"/><stop offset="100%" stop-color="transparent"/></radialGradient>
  </defs>
  <rect width="140" height="180" fill="url(#bg)"/>
  <rect width="140" height="180" fill="url(#glow)"/>
  <ellipse cx="70" cy="100" rx="40" ry="50" fill="#2a0800" opacity="0.8"/>
  <circle cx="70" cy="55" r="25" fill="#3a1000"/>
  <path d="M50 45 L35 15 L55 40Z" fill="#ff4400"/>
  <path d="M90 45 L105 15 L85 40Z" fill="#ff4400"/>
  <ellipse cx="60" cy="52" rx="5" ry="3" fill="#ff6600"/>
  <ellipse cx="80" cy="52" rx="5" ry="3" fill="#ff6600"/>
  <circle cx="60" cy="52" r="2" fill="#ffdd00"/>
  <circle cx="80" cy="52" r="2" fill="#ffdd00"/>
  <path d="M55 65 Q70 75 85 65" stroke="#ff4400" stroke-width="2" fill="none"/>
  <path d="M30 130 Q25 100 40 110 Q35 85 55 105 Q50 80 70 95 Q65 75 85 100 Q80 80 100 105 Q95 85 110 120" fill="#ff4400" opacity="0.6"/>
  <path d="M40 140 Q38 120 50 125 Q48 105 65 115 Q60 95 75 110 Q73 95 90 115 Q85 100 100 130" fill="#ff6600" opacity="0.5"/>
  <text x="70" y="170" text-anchor="middle" fill="#ff6b35" font-size="12" font-weight="bold" font-family="sans-serif">炎魔</text>
</svg>
