<svg xmlns="http://www.w3.org/2000/svg" viewBox="0 0 140 180">
  <defs>
    <linearGradient id="bg" x1="0" y1="0" x2="1" y2="1"><stop offset="0%" stop-color="#1a1200"/><stop offset="100%" stop-color="#3a2800"/></linearGradient>
    <radialGradient id="glow" cx="50%" cy="55%"><stop offset="0%" stop-color="#ffb74d" stop-opacity="0.3"/><stop offset="100%" stop-color="transparent"/></radialGradient>
  </defs>
  <rect width="140" height="180" fill="url(#bg)"/>
  <rect width="140" height="180" fill="url(#glow)"/>
  <path d="M20 150 L50 50 L70 70 L90 45 L120 150Z" fill="#5d4037" opacity="0.8"/>
  <ellipse cx="70" cy="55" rx="28" ry="20" fill="#4e342e"/>
  <path d="M48 48 L35 20 L50 42Z" fill="#8d6e63"/>
  <path d="M92 48 L105 20 L90 42Z" fill="#8d6e63"/>
  <rect x="55" y="48" width="10" height="6" rx="1" fill="#ffb74d"/>
  <rect x="75" y="48" width="10" height="6" rx="1" fill="#ffb74d"/>
  <polygon points="30,120 25,100 35,100" fill="#ffb74d" opacity="0.5"/>
  <polygon points="110,115 105,95 115,95" fill="#ffb74d" opacity="0.5"/>
  <path d="M20 150 L40 145 L60 148 L80 143 L100 147 L120 150" fill="none" stroke="#ffb74d" stroke-width="1" opacity="0.4"/>
  <text x="70" y="170" text-anchor="middle" fill="#ffb74d" font-size="12" font-weight="bold" font-family="sans-serif">地龙</text>
</svg>
